<svg width="508" height="130" viewBox="0 0 508 130" fill="none" xmlns="http://www.w3.org/2000/svg">
<path d="M7.69531 106.403C8.79981 106.403 9.6952 107.299 9.69531 108.403C9.69538 108.403 9.69828 108.578 9.70703 108.955C9.7155 109.32 9.72912 109.849 9.74902 110.526C9.78825 111.861 9.85194 113.772 9.95215 116.139C10.3089 118.589 11.1488 120.747 12.2666 123.283L12.2754 123.302L12.2832 123.321C12.4317 123.678 12.5464 123.97 12.6602 124.257H14.4326C16.6061 124.257 20.8347 124.255 24.4023 123.995C27.9132 123.739 30.6782 123.23 35.3691 122.236C36.4495 122.008 37.5111 122.697 37.7402 123.777C37.9692 124.858 37.2786 125.919 36.1982 126.148C31.4694 127.151 28.4865 127.708 24.6934 127.984C20.9569 128.257 16.584 128.257 14.4326 128.257H13.8691C13.7083 128.776 13.3398 129.228 12.8096 129.477C11.8097 129.945 10.6184 129.514 10.1494 128.515C9.23067 126.556 9.00227 125.849 8.58984 124.858V124.857C7.43874 122.244 6.40658 119.654 5.97852 116.608L5.96484 116.513L5.96094 116.415C5.75439 111.561 5.69531 108.549 5.69531 108.403C5.69543 107.299 6.59097 106.404 7.69531 106.403ZM19.4014 102.857C22.632 102.857 27.7222 102.91 32.1445 103.05C34.3526 103.119 36.4172 103.211 38.0068 103.33C38.7975 103.389 39.5021 103.458 40.0605 103.539C40.3377 103.579 40.6127 103.628 40.8594 103.688C41.0388 103.731 41.4448 103.834 41.8174 104.075L42.4619 104.493L42.6611 105.234C43.1991 107.237 43.4044 109.315 43.3877 111.105C43.3715 112.829 43.1477 114.528 42.6533 115.666L42.6348 115.708L42.6152 115.749C42.1237 116.752 41.3744 118.089 40.1758 120.248C39.6396 121.213 38.4216 121.562 37.4561 121.026C36.4904 120.49 36.1427 119.272 36.6787 118.307C37.8845 116.135 38.5593 114.925 38.9941 114.045C39.1655 113.627 39.3744 112.583 39.3887 111.068C39.3992 109.943 39.3004 108.685 39.0645 107.443C38.6935 107.401 38.2387 107.359 37.707 107.319C36.2036 107.207 34.2069 107.117 32.0186 107.048C27.648 106.91 22.6012 106.857 19.4014 106.857C18.2969 106.857 17.4016 105.962 17.4014 104.857C17.4014 103.753 18.2968 102.857 19.4014 102.857ZM196.772 0C197.877 0.000197889 198.772 0.895553 198.772 2V35.5498C202.395 34.2377 205.814 33.1258 208.247 32.5713L208.265 32.5674L208.282 32.5645C209.565 32.296 211.331 31.814 212.742 31.4717C214.126 31.1359 214.866 31.0149 215.597 30.8965C216.687 30.7203 217.714 31.4609 217.891 32.5508C218.067 33.6409 217.326 34.6688 216.236 34.8457C215.559 34.9555 214.93 35.0563 213.685 35.3584C212.471 35.6527 210.472 36.1907 209.121 36.4746C206.613 37.0478 202.812 38.3118 198.772 39.8096V116.863C198.772 117.968 197.877 118.863 196.772 118.863C195.668 118.863 194.773 117.968 194.772 116.863V41.3379C194.62 41.3978 194.467 41.4565 194.314 41.5166C188.744 43.7146 183.688 45.9431 181.814 46.9863C180.85 47.5233 179.632 47.1764 179.095 46.2119C178.557 45.2469 178.904 44.0286 179.869 43.4912C182.002 42.3036 187.286 39.9901 192.847 37.7959C193.483 37.5447 194.127 37.2936 194.772 37.0449V2C194.772 0.89543 195.668 0 196.772 0ZM100.068 52.6162C100.58 52.5345 101.33 52.459 102.066 52.6953C102.722 52.9058 103.346 53.2539 103.849 53.7949C104.356 54.3406 104.648 54.9837 104.788 55.6367C105.049 56.8541 104.797 58.1856 104.444 59.3896C103.731 61.8215 102.16 65.0853 100.552 68.6807C97.6253 75.2214 91.4627 86.8119 86.9404 94.8232C86.0848 96.339 85.2838 97.7155 84.5303 98.9736C84.743 99.163 84.9487 99.3425 85.1484 99.5078C85.8942 100.022 86.6988 100.549 89.3359 102.499C92.0489 104.505 96.7045 108.022 101.485 111.634C102.366 112.3 102.541 113.553 101.875 114.435C101.209 115.316 99.9555 115.491 99.0742 114.825C94.2844 111.207 89.6502 107.706 86.958 105.715C84.2853 103.738 83.5735 103.282 82.791 102.74L82.7236 102.693L82.6602 102.642C82.5731 102.57 82.4862 102.495 82.3975 102.42C80.1724 105.886 78.3718 108.265 76.6807 110.311C73.9788 113.579 71.6692 115.848 68.7256 118.353C67.8844 119.068 66.6221 118.967 65.9062 118.126C65.1908 117.285 65.2927 116.022 66.1338 115.307C68.9198 112.936 71.0606 110.831 73.5977 107.762C75.2771 105.73 77.0999 103.316 79.4434 99.6094C78.0186 98.1378 76.5448 96.4821 75.1943 94.876C72.776 91.9998 70.5914 89.1082 69.6445 87.5293C69.0765 86.5821 69.384 85.3543 70.3311 84.7861C71.2783 84.2181 72.5062 84.5254 73.0742 85.4727C73.8496 86.7656 75.8634 89.4563 78.2559 92.3018C79.3512 93.6045 80.4961 94.8993 81.5996 96.0752C82.1868 95.0808 82.8054 94.0118 83.457 92.8574C87.9652 84.871 94.0526 73.4117 96.9004 67.0469C98.6162 63.212 99.9932 60.3519 100.605 58.2637C100.886 57.3075 100.916 56.7838 100.887 56.542C100.842 56.5461 100.78 56.5535 100.699 56.5664C100.377 56.6178 99.9496 56.7227 99.3564 56.8848C98.225 57.194 96.6344 57.6715 94.835 57.9893C93.1822 58.2813 90.4322 59.164 87.1846 60.1914C84.0395 61.1864 80.5172 62.2849 77.5801 62.8711C74.6213 63.4615 69.7226 63.8109 68.3018 63.9404C67.2019 64.0405 66.2283 63.2307 66.1279 62.1309C66.0279 61.0311 66.8387 60.0574 67.9385 59.957C69.5532 59.8098 74.1119 59.484 76.7969 58.9482C79.4804 58.4127 82.7891 57.387 85.9785 56.3779C89.065 55.4015 92.1543 54.4005 94.1396 54.0498C95.7077 53.7729 97.0616 53.3653 98.3018 53.0264C98.8937 52.8646 99.5091 52.7055 100.068 52.6162ZM358.521 45.8408C359.625 45.8408 360.52 46.7363 360.521 47.8408V54.0557C360.521 55.8783 360.518 58.2435 360.517 60.8408H368.521C369.625 60.8408 370.52 61.7363 370.521 62.8408C370.521 63.9454 369.625 64.8408 368.521 64.8408H360.515C360.509 69.8873 360.496 75.1978 360.466 78.8594C360.439 82.1556 360.4 84.1427 360.173 85.958C359.943 87.7977 359.527 89.4168 358.825 91.9756C356.821 99.2819 354.931 105.341 353.388 109.517C352.621 111.59 351.915 113.27 351.298 114.418C351.001 114.97 350.658 115.531 350.265 115.951C350.074 116.155 349.754 116.455 349.302 116.649C348.78 116.874 348.033 116.965 347.305 116.562L347.052 116.423L346.85 116.218C346.041 115.399 343.567 113.581 339.782 111.187L339.729 111.151C338.06 110.02 337.116 109.191 336.201 108.388C335.371 107.659 335.289 106.395 336.018 105.565C336.746 104.736 338.01 104.653 338.84 105.382C339.715 106.15 340.51 106.847 341.966 107.834C344.469 109.419 346.576 110.859 348.043 111.993C348.482 111.087 349.02 109.797 349.636 108.13C351.123 104.106 352.979 98.1688 354.968 90.917C355.673 88.347 356.014 86.9829 356.204 85.4629C356.397 83.9185 356.438 82.1678 356.466 78.8262C356.496 75.1768 356.508 69.8795 356.515 64.8408H321.521C320.416 64.8408 319.521 63.9453 319.521 62.8408C319.521 61.7364 320.416 60.8409 321.521 60.8408H356.517C356.518 58.2455 356.521 55.8806 356.521 54.0557V47.8408C356.521 46.7364 357.416 45.8409 358.521 45.8408ZM308.521 2.84082C309.625 2.84082 310.52 3.73633 310.521 4.84082C310.521 4.99015 310.518 5.1539 310.329 10.4482C310.139 15.7694 309.758 26.3655 309.307 33.001C308.686 42.1345 306.978 48.0065 305.742 53.5762C304.989 56.9725 303.763 63.7209 301.76 72.2568C300.676 76.8754 300.671 78.8797 300.618 80.0967L300.615 80.1553L300.609 80.2119C300.477 81.5104 300.02 88.9722 299.336 100.678L299.335 100.689C299.019 105.565 298.769 108.262 298.512 111.026C298.409 112.126 297.435 112.934 296.335 112.832C295.236 112.73 294.427 111.756 294.529 110.656C294.785 107.908 295.032 105.254 295.344 100.432C296.013 88.9828 296.473 81.4419 296.624 79.873C296.681 78.5269 296.716 76.2423 297.865 71.3428C299.888 62.7233 301.014 56.4246 301.838 52.71C303.115 46.9544 304.722 41.4782 305.316 32.7295C305.762 26.1724 306.142 15.649 306.332 10.3057C306.523 4.93647 306.521 4.89567 306.521 4.84082C306.521 3.73638 307.416 2.84089 308.521 2.84082ZM480.486 99.1289C481.4 98.5767 482.578 98.8439 483.172 99.7168C483.179 99.7251 483.199 99.7505 483.242 99.8018C483.371 99.9539 483.627 100.248 484.147 100.833C485.186 102 487.21 104.248 488.459 105.587C489.087 106.26 489.437 106.612 489.824 106.932C490.215 107.254 490.688 107.582 491.588 108.149C492.522 108.739 492.801 109.974 492.212 110.908C491.623 111.842 490.387 112.121 489.453 111.532C488.529 110.949 487.874 110.509 487.275 110.015C486.673 109.517 486.173 109 485.535 108.316C484.253 106.943 482.205 104.667 481.16 103.493C480.194 102.408 479.976 102.152 479.809 101.875C479.238 100.93 479.541 99.7002 480.486 99.1289ZM435.521 11.8408C436.625 11.8408 437.52 12.7363 437.521 13.8408C437.521 13.8662 437.52 13.8948 437.489 21.3281C437.473 25.3246 437.446 31.4786 437.312 38.4805C438.758 38.0377 440.222 37.53 441.855 36.9541C442.897 36.5869 444.04 37.1342 444.407 38.1758C444.774 39.2175 444.227 40.3603 443.186 40.7275C442.687 40.9034 442.199 41.0724 441.721 41.2383C442.032 41.4691 442.26 41.7785 442.394 42.124C442.399 42.1338 442.405 42.1446 442.411 42.1562C442.542 42.3973 442.84 42.9294 443.396 43.792C443.951 44.6515 444.761 45.8329 446.119 47.6387C446.783 48.5213 446.605 49.7755 445.723 50.4395C444.84 51.1032 443.586 50.9255 442.922 50.043C441.517 48.1751 440.652 46.9145 440.036 45.9609C439.423 45.0109 439.074 44.3924 438.896 44.0664C438.83 43.9449 438.744 43.7855 438.685 43.6445C438.669 43.6064 438.626 43.5023 438.59 43.3682C438.572 43.3016 438.54 43.1712 438.526 43.0039C438.517 42.8886 438.504 42.6083 438.605 42.2686C438.146 42.4103 437.686 42.5473 437.222 42.6777C437.102 47.5197 436.927 52.6232 436.666 57.6035C435.935 71.5455 434.535 84.067 433.747 92.0537C432.96 100.027 432.816 103.186 432.517 107.966C432.448 109.068 431.498 109.906 430.396 109.837C429.293 109.768 428.455 108.818 428.524 107.716C428.823 102.944 428.972 99.7159 429.767 91.6602C430.455 84.6874 431.587 74.4417 432.349 62.8311C431.341 65.1845 430.025 68.0188 428.299 71.3916C425.667 76.5332 420.597 82.9985 416.079 88.6631C411.461 94.4532 406.927 99.1927 404.191 101.956C401.379 104.797 400.704 105.315 398.999 107.188C398.255 108.004 396.99 108.063 396.174 107.319C395.358 106.576 395.299 105.311 396.042 104.494C397.804 102.559 398.741 101.776 401.349 99.1416C404.034 96.4297 408.458 91.8031 412.951 86.1689C417.545 80.4093 422.328 74.2793 424.738 69.5693C427.773 63.6392 429.485 59.4966 430.432 56.7812C430.905 55.424 431.184 54.4329 431.343 53.7607C431.513 53.0389 431.52 52.7809 431.521 52.8408C431.521 51.9303 432.129 51.1627 432.962 50.9209C433.056 48.4626 433.134 46.0141 433.196 43.6211C431.862 43.8715 430.428 44.0824 428.826 44.2461C422.989 44.8426 415.145 44.8408 411.318 44.8408H407.521V40.8408H411.318C415.197 40.8408 422.825 40.8383 428.42 40.2666C430.243 40.0803 431.823 39.8315 433.292 39.5244C433.444 32.1019 433.472 25.5255 433.489 21.3115C433.52 13.8675 433.521 13.8551 433.521 13.8408C433.521 12.7364 434.416 11.8409 435.521 11.8408ZM456.544 102.534C456.714 101.443 457.736 100.695 458.827 100.864C459.918 101.034 460.666 102.056 460.497 103.147C460.457 103.404 460.398 103.619 460.228 104.132C460.056 104.646 459.732 105.573 459.408 106.5C459.044 107.543 457.904 108.093 456.861 107.729C455.819 107.364 455.269 106.224 455.633 105.182C455.963 104.238 456.273 103.348 456.433 102.869C456.512 102.63 456.543 102.526 456.554 102.486C456.553 102.491 456.551 102.497 456.55 102.504C456.545 102.529 456.541 102.551 456.544 102.534ZM139.229 77.6816C140.164 76.5979 142.436 76.8614 142.982 77.6523C143.029 77.7917 143.076 77.9879 143.086 78.042C143.097 78.1106 143.102 78.1671 143.103 78.1719C143.105 78.1993 143.106 78.2221 143.106 78.2256C143.107 78.2328 143.108 78.2389 143.108 78.2422C143.109 78.2527 143.109 78.2664 143.109 78.2725C143.11 78.2899 143.112 78.3155 143.114 78.3506C143.118 78.4212 143.125 78.5344 143.137 78.6895C143.159 79 143.198 79.4837 143.265 80.1445C143.396 81.4498 143.634 83.4487 144.058 86.1777C144.781 88.92 146.12 91.9236 147.238 94.1758C148.333 96.3793 149.102 97.633 150.784 100.05C151.415 100.956 151.192 102.203 150.285 102.834C149.379 103.465 148.132 103.241 147.501 102.335C145.739 99.8038 144.859 98.3789 143.655 95.9551C142.488 93.6044 140.984 90.2649 140.161 87.0928L140.137 86.9971L140.121 86.8984C139.677 84.0464 139.426 81.9411 139.285 80.5449C139.215 79.8472 139.173 79.3262 139.147 78.9785C139.135 78.8047 139.126 78.6737 139.121 78.5869C139.119 78.5518 139.118 78.524 139.117 78.5049C139.118 78.5138 139.118 78.5297 139.12 78.5479C139.12 78.5484 139.122 78.5517 139.122 78.5566L139.111 78.3604C139.111 78.3527 139.111 78.3266 139.112 78.2939C139.113 78.2749 139.116 78.2242 139.118 78.1924C139.125 78.1276 139.172 77.8699 139.229 77.6816ZM151.658 79.1455C153.645 79.1455 156.713 79.228 159.437 79.4092C160.795 79.4996 162.103 79.617 163.16 79.7666C163.686 79.841 164.187 79.9278 164.616 80.0332C164.925 80.1089 165.401 80.2392 165.829 80.4883L166.01 80.6035L166.256 80.7744L166.441 81.0098C168.665 83.8365 169.746 87.6821 169.697 94.9229L169.696 95.0508L169.68 95.1777C169.565 96.0231 169.369 96.7851 168.982 97.458C168.577 98.1636 168.059 98.6014 167.614 98.9248C167.526 98.9892 167.433 99.0429 167.338 99.0908C167.005 99.4174 166.559 99.6316 166.057 99.6611C162.765 99.8538 160.09 99.8545 158.735 99.8545H157.258C156.153 99.8545 155.258 98.9588 155.258 97.8545C155.258 96.7499 156.153 95.8545 157.258 95.8545H158.735C159.993 95.8545 162.343 95.8519 165.25 95.6982C165.254 95.6956 165.257 95.693 165.261 95.6904C165.49 95.5234 165.507 95.4781 165.514 95.4658C165.537 95.4244 165.62 95.2549 165.696 94.7549C165.725 88.4707 164.83 85.6782 163.606 83.9062C163.362 83.8493 163.026 83.7869 162.6 83.7266C161.684 83.597 160.488 83.488 159.171 83.4004C156.543 83.2255 153.564 83.1455 151.658 83.1455C150.554 83.1453 149.658 82.2499 149.658 81.1455C149.658 80.0411 150.554 79.1457 151.658 79.1455ZM505.521 91.8408C506.625 91.8408 507.52 92.7363 507.521 93.8408C507.521 94.9454 506.625 95.8408 505.521 95.8408C504.851 95.8408 504.217 95.8399 502.663 95.9609C501.014 96.0895 498.508 96.3361 487.662 96.6592C476.839 96.9816 458.237 97.3693 448.935 97.5771C444.279 97.6812 441.952 97.7404 440.787 97.7764C440.258 97.7927 439.988 97.8041 439.855 97.8115C439.213 97.92 438.531 97.7143 438.055 97.2012C437.303 96.3915 437.351 95.1263 438.16 94.375L438.236 94.3066C438.337 94.2225 438.507 94.0972 438.741 93.9971C438.957 93.9049 439.142 93.8709 439.208 93.8594C439.348 93.8351 439.486 93.826 439.561 93.8213C439.75 93.8092 440.079 93.7964 440.663 93.7783C441.848 93.7417 444.191 93.6821 448.845 93.5781C458.162 93.3699 476.739 92.983 487.543 92.6611C498.324 92.34 500.766 92.0963 502.353 91.9727C504.034 91.8417 504.775 91.8408 505.521 91.8408ZM440.293 97.6826C440.3 97.6796 440.308 97.6779 440.315 97.6748C440.319 97.6732 440.322 97.6706 440.326 97.6689C440.315 97.6738 440.304 97.678 440.293 97.6826ZM440.655 97.4844C440.665 97.4775 440.676 97.472 440.687 97.4648C440.69 97.4626 440.692 97.4593 440.695 97.457C440.682 97.4666 440.669 97.4752 440.655 97.4844ZM343.521 85.8408C344.625 85.8408 345.52 86.7363 345.521 87.8408C345.521 88.9454 344.625 89.8408 343.521 89.8408H329.521C328.416 89.8408 327.521 88.9453 327.521 87.8408C327.521 86.7364 328.416 85.8409 329.521 85.8408H343.521ZM463.521 13.8408C464.625 13.8408 465.52 14.7363 465.521 15.8408V24.6562C465.521 25.8621 465.518 27.2351 465.518 28.7363C467.783 28.7117 470.378 28.6859 473.242 28.6514V28.6504C473.72 28.6419 474.144 28.6288 474.521 28.6201V16.8408C474.521 15.7364 475.416 14.8409 476.521 14.8408C477.625 14.8408 478.52 15.7363 478.521 16.8408V28.2764C478.977 28.1695 479.482 28.0421 480.026 27.9033C481.097 27.6304 482.185 28.2765 482.458 29.3467C482.731 30.417 482.085 31.5054 481.015 31.7783C480.237 31.9767 479.418 32.1861 478.701 32.333C478.641 32.3454 478.581 32.3558 478.521 32.3672V87.8408C478.521 88.9454 477.625 89.8408 476.521 89.8408C475.416 89.8408 474.521 88.9453 474.521 87.8408V32.6211C474.157 32.6292 473.756 32.6416 473.313 32.6494L473.302 32.6504C470.413 32.6852 467.797 32.7113 465.515 32.7363C465.499 41.8491 465.436 53.772 465.189 62.4756C465.132 64.5061 465.062 66.3465 464.986 68.0303C465.104 68.028 465.289 68.0252 465.578 68.0195C466.366 68.0041 467.916 67.9734 469.06 67.9424C470.196 67.9116 470.885 67.8812 471.604 67.8496C472.707 67.8015 473.64 68.6565 473.688 69.7598C473.737 70.8631 472.882 71.7971 471.778 71.8457C471.052 71.8776 470.338 71.9087 469.168 71.9404C468.006 71.9719 466.441 72.0032 465.656 72.0186C464.893 72.0335 464.843 72.0342 464.804 72.0342C464.794 72.0342 464.784 72.0324 464.774 72.0322C464.425 77.6647 463.969 81.3449 463.505 85.0869C463.369 86.183 462.37 86.9611 461.274 86.8252C460.178 86.6891 459.4 85.6907 459.536 84.5947C460.211 79.1571 460.864 73.9062 461.191 62.3623C461.437 53.7245 461.499 41.8748 461.515 32.7812C457.752 32.8202 455.576 32.8408 455.521 32.8408C454.416 32.8408 453.521 31.9453 453.521 30.8408C453.521 29.7364 454.416 28.8409 455.521 28.8408C455.521 28.8408 455.624 28.8399 455.851 28.8379C456.069 28.836 456.389 28.833 456.804 28.8291C457.634 28.8213 458.845 28.8097 460.388 28.7939C460.747 28.7903 461.123 28.7853 461.518 28.7812C461.518 27.2641 461.521 25.8759 461.521 24.6562V15.8408C461.521 14.7364 462.416 13.8409 463.521 13.8408ZM280.174 67.3623C280.99 66.6189 282.255 66.6779 282.999 67.4941C283.742 68.3108 283.684 69.5757 282.867 70.3193C281.823 71.2701 280.74 72.2578 279.021 73.459C278.181 74.0454 277.206 74.6723 276.147 75.3584C275.085 76.0476 273.906 76.815 272.603 77.7168C269.715 79.8082 267.503 81.4504 266.017 82.582C265.271 83.15 264.718 83.5814 264.358 83.873C264.202 83.9998 264.098 84.0888 264.034 84.1445C263.667 84.57 263.126 84.8408 262.521 84.8408C261.416 84.8408 260.521 83.9453 260.521 82.8408C260.521 82.4044 260.664 82.085 260.716 81.9756C260.783 81.8331 260.854 81.727 260.895 81.6699C260.976 81.5543 261.055 81.4677 261.093 81.4268C261.177 81.3364 261.264 81.2558 261.327 81.1992C261.462 81.0773 261.638 80.9297 261.838 80.7676C262.245 80.4375 262.835 79.977 263.594 79.3994C265.115 78.2412 267.358 76.5776 270.266 74.4717L270.301 74.4463C271.667 73.5008 272.895 72.7005 273.971 72.0029C275.058 71.2977 275.961 70.7165 276.729 70.1797C278.226 69.1345 279.15 68.2939 280.174 67.3623ZM264.324 83.6992C264.326 83.696 264.329 83.6928 264.33 83.6895C264.332 83.6857 264.333 83.6811 264.335 83.6768C264.331 83.6843 264.328 83.6918 264.324 83.6992ZM139.24 79.0664C139.241 79.0677 139.243 79.069 139.244 79.0703C139.24 79.0593 139.235 79.0482 139.231 79.0371C139.235 79.0469 139.237 79.057 139.24 79.0664ZM142.989 79.04C142.99 79.0389 142.992 79.0383 142.993 79.0371C142.995 79.0322 142.995 79.0265 142.996 79.0215C142.994 79.0277 142.991 79.0339 142.989 79.04ZM143.102 78.541C143.102 78.5356 143.104 78.5304 143.104 78.5264C143.107 78.4947 143.11 78.4447 143.11 78.4258C143.111 78.3935 143.111 78.3678 143.111 78.3604C143.111 78.4212 143.107 78.4815 143.102 78.541ZM29.0664 73.1191C30.1709 73.1192 31.0664 74.0146 31.0664 75.1191C31.0662 76.2235 30.1708 77.1191 29.0664 77.1191H27.3711C26.2668 77.1189 25.3713 76.2234 25.3711 75.1191C25.3711 74.0147 26.2667 73.1193 27.3711 73.1191H29.0664ZM159.649 55.8818C160.625 55.3646 161.835 55.7364 162.353 56.7119C162.87 57.6878 162.498 58.8977 161.522 59.415C160.529 59.9415 159.88 60.3046 159.383 60.5811C158.896 60.8516 158.5 61.072 158.074 61.2705C157.168 61.6933 156.207 61.9864 154.838 62.126L154.781 62.1318L154.724 62.1348C153.375 62.1942 152.321 62.2243 151.608 62.2393C151.252 62.2467 150.981 62.25 150.801 62.252C150.711 62.2529 150.643 62.2537 150.6 62.2539C150.579 62.254 150.563 62.2539 150.553 62.2539V62.2529C150.548 62.253 150.542 62.2539 150.537 62.2539H150.527C150.52 62.2538 150.46 62.2528 150.405 62.25C148.544 60.2131 150.497 58.2682 150.52 58.2539H150.537C150.581 58.2539 150.626 58.2579 150.669 58.2607L150.667 58.2578C150.611 58.255 150.55 58.2539 150.545 58.2539H150.577C150.615 58.2537 150.676 58.2528 150.759 58.252C150.925 58.2502 151.183 58.2464 151.524 58.2393C152.196 58.2251 153.194 58.1965 154.476 58.1406C155.382 58.0444 155.899 57.8715 156.384 57.6455C156.657 57.5179 156.928 57.3702 157.438 57.0859C157.939 56.8074 158.619 56.4283 159.649 55.8818ZM470.686 54.0234C471.689 53.5624 472.877 54.0024 473.338 55.0059C473.799 56.0096 473.359 57.1971 472.355 57.6582C469.94 58.7677 468.779 58.8408 468.017 58.8408H467.521C466.416 58.8408 465.521 57.9453 465.521 56.8408C465.521 55.7364 466.416 54.8409 467.521 54.8408H468.017C468.168 54.8408 468.333 54.8438 468.676 54.7656C469.055 54.6791 469.685 54.4829 470.686 54.0234ZM31.5869 54.4287C32.6913 54.4288 33.5868 55.3243 33.5869 56.4287C33.5869 57.5332 32.6914 58.4286 31.5869 58.4287H25.8438C24.7393 58.4285 23.8438 57.5332 23.8438 56.4287C23.8438 55.3243 24.7394 54.4289 25.8438 54.4287H31.5869ZM158.108 43.6523C159.213 43.6524 160.108 44.5478 160.108 45.6523C160.108 46.7569 159.213 47.6523 158.108 47.6523H148.973C147.868 47.6523 146.973 46.7569 146.973 45.6523C146.973 44.5478 147.868 43.6524 148.973 43.6523H158.108ZM52.709 22.2705C53.8089 22.1709 54.781 22.9821 54.8809 24.082C54.9805 25.1819 54.1702 26.155 53.0703 26.2549C51.8943 26.3616 51.2209 26.4581 49.54 26.8447C47.8997 27.222 45.3175 27.8653 37.6025 30.8135C33.7407 32.2893 28.7081 34.3274 23.79 36.3193C18.888 38.3048 14.0917 40.2481 10.7451 41.5137C7.09762 42.8931 5.0778 43.6229 3.95703 44.0098C3.39868 44.2025 3.04701 44.3155 2.82031 44.3828C2.70819 44.4161 2.6093 44.443 2.52148 44.4639C2.51072 44.4665 2.27414 44.5293 2 44.5293C0.895532 44.5293 0.000164911 43.6337 0 42.5293C3.72103e-05 41.5568 0.694399 40.7472 1.61426 40.5674C1.62814 40.5635 1.65044 40.5581 1.68164 40.5488C1.82833 40.5052 2.11792 40.413 2.65234 40.2285C3.71845 39.8605 5.69535 39.1461 9.33008 37.7715C12.6226 36.5263 17.3681 34.6054 22.2891 32.6123C27.194 30.6257 32.2677 28.5702 36.1748 27.0771C43.9974 24.0878 46.7652 23.3783 48.6436 22.9463C50.481 22.5237 51.334 22.3953 52.709 22.2705ZM275.521 25.8408C276.625 25.8408 277.52 26.7363 277.521 27.8408V39.8408C277.521 40.9454 276.625 41.8408 275.521 41.8408C274.416 41.8408 273.521 40.9453 273.521 39.8408V27.8408C273.521 26.7364 274.416 25.8409 275.521 25.8408ZM1.67578 40.5566C1.66317 40.5588 1.6515 40.5615 1.6416 40.5635C1.68962 40.5548 1.73796 40.5462 1.78711 40.541C1.72461 40.5478 1.68374 40.5552 1.67578 40.5566ZM368.393 19.8447C369.404 19.7787 370.322 20.4886 370.493 21.5098C370.629 22.3173 370.259 23.0919 369.615 23.5137C369.585 23.5395 369.542 23.5773 369.48 23.6318C369.173 23.9068 368.558 24.4724 367.318 25.6289C364.846 27.9356 359.945 32.5441 354.891 37.2979C354.086 38.0545 352.82 38.0155 352.063 37.2109C351.307 36.4063 351.346 35.1404 352.15 34.3838C357.201 29.6335 362.11 25.0176 364.589 22.7041C365.825 21.5506 366.471 20.9568 366.816 20.6484C366.978 20.5044 367.115 20.3844 367.23 20.2959C367.282 20.2566 367.407 20.1621 367.573 20.0752C367.836 19.9384 368.065 19.8891 368.189 19.8682L368.393 19.8447ZM159.363 28.3086C160.419 27.9845 161.538 28.5774 161.862 29.6328C162.187 30.6884 161.594 31.8082 160.538 32.1328C156.361 33.4169 153.341 34.5038 151.065 35.2373C148.742 35.9862 147.415 36.2841 144.522 36.4258L144.493 36.4268L144.465 36.4277C137.644 36.5631 133.499 36.5664 133.444 36.5664C132.34 36.5664 131.445 35.6708 131.444 34.5664C131.444 33.4618 132.34 32.5664 133.444 32.5664C133.45 32.5664 133.515 32.5667 133.637 32.5664C133.764 32.5661 133.952 32.5647 134.199 32.5635C134.693 32.5611 135.423 32.5567 136.364 32.5479C138.241 32.5303 140.962 32.4948 144.351 32.4277C146.842 32.3046 147.823 32.0803 149.839 31.4307C151.909 30.7635 155.204 29.5872 159.363 28.3086ZM63.6045 0.520508C64.7089 0.520673 65.6045 1.41604 65.6045 2.52051V7.29395C65.6045 12.0078 65.6049 21.4717 65.4502 26.8154C65.3734 29.4663 65.2568 31.1641 65.0166 32.4229C64.7548 33.7949 64.3502 34.6229 63.8438 35.5166C63.2992 36.4774 62.0781 36.8147 61.1172 36.2705C60.1566 35.7259 59.819 34.5057 60.3633 33.5449C60.7432 32.8745 60.936 32.4689 61.0879 31.6729C61.2614 30.763 61.3752 29.3554 61.4521 26.6992C61.6048 21.4274 61.6045 12.0334 61.6045 7.29395V2.52051C61.6045 1.41606 62.5001 0.520703 63.6045 0.520508ZM321.85 24.8604C322.186 24.9057 322.481 25.0311 322.606 25.084C322.966 25.2361 323.6 25.5462 324.23 25.9844C324.86 26.4218 325.428 26.9541 325.882 27.376C326.691 28.1278 326.737 29.393 325.985 30.2021C325.233 31.0112 323.968 31.0574 323.159 30.3057C322.661 29.8426 322.303 29.5159 321.948 29.2695C321.672 29.0776 321.38 28.9225 321.186 28.8301C320.812 28.767 320.453 28.5989 320.155 28.3213C319.348 27.5674 319.305 26.3014 320.059 25.4941C320.064 25.4885 320.34 25.1661 320.812 24.9814C321.259 24.8069 321.652 24.8337 321.85 24.8604ZM85.8096 1.49512C87.6021 1.58744 88.5619 3.0017 89.0361 4.03906C89.5507 5.16473 89.8819 6.6356 90.1533 8.14062C90.7321 11.3505 91.1166 15.0682 92.0498 18.9971C92.3331 20.1897 93.0359 20.9011 94.5479 22.0664C96.4302 23.5171 98.7983 24.0474 101.343 24.127C103.855 24.2054 106.157 23.8568 108.253 23.6807C108.256 23.6502 108.261 23.6164 108.264 23.5801C108.332 22.7259 108.333 21.5787 108.333 20.2754C108.333 19.1712 109.229 18.2754 110.333 18.2754C111.437 18.2755 112.333 19.1713 112.333 20.2754C112.333 21.5212 112.335 22.8498 112.251 23.8984C112.215 24.3472 112.149 25.2554 111.594 26.0654C110.978 26.9644 110.041 27.3872 109.098 27.6035L108.953 27.6367L108.806 27.6484C107.041 27.7856 104.113 28.2154 101.218 28.125C98.2576 28.0325 94.9264 27.4085 92.1064 25.2354C90.5398 24.0279 88.7896 22.5796 88.1582 19.9219C87.2024 15.8977 86.7188 11.6337 86.2168 8.84961C85.9479 7.35828 85.6847 6.3285 85.3984 5.70215C85.3578 5.61335 85.3225 5.54354 85.293 5.49023C81.9913 5.48514 79.2616 5.54433 77.3486 5.60645C76.3608 5.63852 75.5905 5.67084 75.0732 5.69531C74.8148 5.70754 74.6195 5.71857 74.4922 5.72559C74.4285 5.72909 74.3826 5.73174 74.3555 5.7334C74.3436 5.73412 74.3373 5.73434 74.3359 5.73438C74.3369 5.73421 74.3398 5.73362 74.3428 5.7334C74.3457 5.73318 74.3549 5.73243 74.3662 5.73145C74.3693 5.73114 74.3745 5.7301 74.3809 5.72949C74.318 5.73545 74.2538 5.74022 74.1895 5.74023C74.1759 5.74018 74.1421 5.73889 74.1211 5.73828C74.0827 5.73659 73.953 5.72579 73.8623 5.71289C73.4274 5.58886 72.1913 3.66119 73.1631 2.02344C73.4186 1.89455 73.7618 1.78592 73.834 1.77148C73.8669 1.76584 73.9187 1.75834 73.9375 1.75586C73.9496 1.75436 73.9698 1.75193 73.9785 1.75098C73.9952 1.7492 74.0092 1.74763 74.0156 1.74707C74.0367 1.74523 74.056 1.74446 74.0605 1.74414C74.0759 1.74307 74.0947 1.74131 74.1123 1.74023C74.1496 1.73796 74.2038 1.73523 74.2725 1.73145C74.411 1.72382 74.617 1.71286 74.8848 1.7002C75.4211 1.67482 76.2108 1.64113 77.2188 1.6084C79.2353 1.54292 82.1309 1.4803 85.6338 1.49023L85.8096 1.49512ZM338.735 20.8496C339.099 20.8821 339.436 21.0175 339.535 21.0557C339.934 21.2092 340.644 21.5221 341.495 22.0547C341.911 22.3146 342.352 22.6234 342.827 22.9541C343.315 23.2936 343.886 23.6894 344.615 24.167C345.539 24.7717 345.799 26.0114 345.194 26.9355C344.59 27.8596 343.35 28.1191 342.426 27.5146C341.647 27.0049 341.038 26.5828 340.543 26.2383C340.035 25.8851 339.687 25.6424 339.374 25.4463C338.877 25.1353 338.467 24.943 338.229 24.8428C337.329 24.7113 336.624 23.9835 336.531 23.0713L336.521 22.8672V22.8447C336.521 22.8312 336.521 22.8086 336.522 22.7812C336.525 22.7289 336.53 22.6337 336.55 22.5176C336.591 22.28 336.706 21.8731 337.05 21.4971C337.738 20.7449 338.63 20.8402 338.735 20.8496ZM369.079 23.7598C369.082 23.7588 369.086 23.7588 369.09 23.7578C369.102 23.7541 369.114 23.7481 369.126 23.7441C369.11 23.7491 369.095 23.7552 369.079 23.7598ZM340.488 23.2119C340.489 23.2063 340.491 23.2008 340.492 23.1953C340.496 23.1726 340.498 23.1497 340.501 23.1279C340.497 23.1561 340.493 23.1841 340.488 23.2119ZM346.515 1.84082C346.594 1.84058 347.326 1.82028 347.933 2.4248C348.715 3.20465 348.716 4.4707 347.937 5.25293C347.736 5.45453 347.502 5.60326 347.253 5.70117C347.236 5.70954 347.215 5.72023 347.188 5.7334C347.057 5.79956 346.851 5.90641 346.567 6.05664C346.003 6.35509 345.171 6.80181 344.094 7.38281C341.937 8.5464 338.842 10.2245 335.007 12.2959L334.979 12.3115C333.495 13.083 332.509 13.5537 331.773 13.8984C331.016 14.2533 330.626 14.4284 330.22 14.6523C329.476 15.0622 328.656 15.6553 326.883 17.3047C326.074 18.057 324.809 18.0117 324.057 17.2031C323.304 16.3945 323.35 15.1293 324.158 14.377C326.007 12.6568 327.112 11.798 328.289 11.1494C328.843 10.8443 329.4 10.5932 330.076 10.2764C330.77 9.95111 331.698 9.50681 333.11 8.77344C336.929 6.71119 340.044 5.02235 342.194 3.8623C343.271 3.28133 344.117 2.82748 344.697 2.52051C344.985 2.36808 345.219 2.2465 345.387 2.16211C345.467 2.12182 345.552 2.07953 345.628 2.04492C345.659 2.03062 345.729 1.99833 345.812 1.96777C345.844 1.9561 345.949 1.91775 346.086 1.8877C346.146 1.87446 346.307 1.84129 346.515 1.84082ZM142.043 0.791016L142.196 0.795898L142.347 0.823242C143.022 0.946087 143.686 1.25981 144.266 1.59082C144.875 1.93898 145.535 2.39155 146.225 2.91504C147.606 3.96307 149.222 5.38196 150.969 7.04492H150.968C152.312 8.30869 152.939 8.85757 154.564 10.5742C155.324 11.3761 155.29 12.6418 154.488 13.4014C153.686 14.1606 152.42 14.1268 151.66 13.3252C150.126 11.7056 149.591 11.241 148.219 9.9502L148.21 9.94238C146.518 8.33122 145.022 7.02381 143.807 6.10156C143.198 5.64002 142.689 5.29647 142.281 5.06348C142.079 4.94785 141.918 4.86919 141.797 4.81836C141.763 4.80431 141.734 4.79555 141.711 4.78711C141.218 4.77756 140.869 4.78274 140.654 4.79492C139.964 5.01515 139.178 4.85315 138.631 4.30566C138.321 3.99617 137.839 3.26554 138.123 2.30957C138.34 1.57994 138.878 1.24062 139.006 1.16211C139.332 0.961946 139.649 0.898336 139.703 0.886719C139.924 0.838866 140.161 0.81789 140.346 0.805664C140.653 0.785411 141.051 0.776211 141.533 0.78125L142.043 0.791016ZM26.4111 3.46582C27.1922 2.68478 28.4582 2.68479 29.2393 3.46582C29.24 3.46682 29.2633 3.49325 30.3105 4.43555C31.3606 5.38037 33.4127 7.22164 35.5283 9.12012C36.3503 9.85786 36.4183 11.1223 35.6807 11.9443C34.9429 12.7662 33.6785 12.8343 32.8564 12.0967C30.7422 10.1994 28.6883 8.35628 27.6357 7.40918C26.6119 6.48792 26.5076 6.39041 26.4111 6.29395C25.6302 5.51295 25.6303 4.24688 26.4111 3.46582ZM346.355 5.83496L346.523 5.84082C346.461 5.84091 346.398 5.83778 346.336 5.83203C346.343 5.83266 346.349 5.83441 346.355 5.83496ZM346.933 5.79688C346.937 5.796 346.941 5.79565 346.944 5.79492C346.958 5.79203 346.97 5.78719 346.982 5.78418C346.966 5.78813 346.949 5.79336 346.933 5.79688ZM74.3984 5.72852C74.4071 5.72758 74.4305 5.72511 74.4424 5.72363C74.4615 5.7211 74.5124 5.71359 74.5449 5.70801C74.5474 5.70742 74.5507 5.70578 74.5537 5.70508C74.5026 5.71448 74.4508 5.72308 74.3984 5.72852ZM75.2031 5.46094C75.2071 5.45905 75.2119 5.45802 75.2158 5.45605L75.2168 5.45312C75.2124 5.45576 75.2075 5.45835 75.2031 5.46094ZM74.5225 1.77051C74.5205 1.76988 74.5185 1.76724 74.5166 1.7666C74.5046 1.7649 74.4915 1.76527 74.4785 1.76367C74.4932 1.76579 74.5079 1.76807 74.5225 1.77051ZM74.3037 1.74609C74.2844 1.74457 74.2687 1.74169 74.2588 1.74121C74.2379 1.7406 74.2029 1.74028 74.1895 1.74023C74.2276 1.74025 74.2661 1.74398 74.3037 1.74609Z" fill="black"/>
</svg>
