<svg preserveAspectRatio="none" width="100%" height="100%" overflow="visible" style="display: block;" viewBox="0 0 502 546" fill="none" xmlns="http://www.w3.org/2000/svg">
<g id="Arrow">
<path id="Vector 56" d="M217.826 25H283.878C285.899 25 286.645 22.3445 284.92 21.2924L252.135 1.3021C250.829 0.505489 249.183 0.523995 247.894 1.34977L216.747 21.3162C215.065 22.3942 215.829 25 217.826 25Z" fill="var(--fill-0, #FFFAEF)"/>
<path id="Vector 59" d="M477 239.826L477 305.878C477 307.899 479.655 308.645 480.708 306.92L500.698 274.135C501.495 272.829 501.476 271.183 500.65 269.894L480.684 238.747C479.606 237.065 477 237.829 477 239.826Z" fill="var(--fill-0, #FFFAEF)"/>
<path id="Vector 58" d="M216.826 521H282.878C284.899 521 285.645 523.655 283.92 524.708L251.135 544.698C249.829 545.495 248.183 545.476 246.894 544.65L215.747 524.684C214.065 523.606 214.829 521 216.826 521Z" fill="var(--fill-0, #FFFAEF)"/>
<path id="Vector 60" d="M25 235.826L25 301.878C25 303.899 22.3445 304.645 21.2924 302.92L1.30211 270.135C0.505491 268.829 0.523997 267.183 1.34977 265.894L21.3162 234.747C22.3942 233.065 25 233.829 25 235.826Z" fill="var(--fill-0, #FFFAEF)"/>
</g>
</svg>
