<svg preserveAspectRatio="none" width="100%" height="100%" overflow="visible" style="display: block;" viewBox="0 0 534.104 561.53" fill="none" xmlns="http://www.w3.org/2000/svg">
<g id="ArrowDiagonal">
<path id="Vector 61" d="M24.5089 56.2728L59.1228 21.659C60.454 20.3277 59.3761 18.0622 57.5034 18.2553L26.9998 21.4014C25.0786 21.5996 23.5733 23.1423 23.4224 25.0679L21.1008 54.7024C20.9557 56.5549 23.195 57.5867 24.5089 56.2728Z" fill="var(--fill-0, #FFFAEF)"/>
<path id="Vector 63" d="M21.5089 505.258L56.1228 539.871C57.454 541.203 56.3761 543.468 54.5034 543.275L23.9998 540.129C22.0786 539.931 20.5733 538.388 20.4224 536.463L18.1008 506.828C17.9557 504.976 20.195 503.944 21.5089 505.258Z" fill="var(--fill-0, #FFFAEF)"/>
<path id="Vector 62" d="M477.831 28.509L512.445 63.1228C513.776 64.454 516.042 63.3761 515.849 61.5034L512.703 30.9999C512.505 29.0786 510.962 27.5733 509.036 27.4225L479.402 25.1009C477.549 24.9557 476.517 27.195 477.831 28.509Z" fill="var(--fill-0, #FFFAEF)"/>
<path id="Vector 64" d="M474.935 539.595L509.549 504.981C510.88 503.65 513.146 504.728 512.953 506.601L509.807 537.104C509.609 539.026 508.066 540.531 506.14 540.682L476.506 543.003C474.653 543.148 473.621 540.909 474.935 539.595Z" fill="var(--fill-0, #FFFAEF)"/>
</g>
</svg>
